<svg xmlns="http://www.w3.org/2000/svg" xmlns:xlink="http://www.w3.org/1999/xlink" width="500" zoomAndPan="magnify" viewBox="0 0 375 374.999991" height="500" preserveAspectRatio="xMidYMid meet" version="1.0"><defs><g/><clipPath id="d3c20ecdaf"><path d="M 37.5 120.527344 L 57.65625 120.527344 L 57.65625 139.738281 L 37.5 139.738281 Z M 37.5 120.527344 " clip-rule="nonzero"/></clipPath><clipPath id="a88174e7ba"><path d="M 47.578125 120.527344 L 49.957031 127.863281 L 57.65625 127.863281 L 51.425781 132.398438 L 53.804688 139.738281 L 47.578125 135.203125 L 41.347656 139.738281 L 43.726562 132.398438 L 37.5 127.863281 L 45.199219 127.863281 L 47.578125 120.527344 " clip-rule="nonzero"/></clipPath><clipPath id="db4a3d3ccf"><path d="M 61.5 120.527344 L 81.65625 120.527344 L 81.65625 139.738281 L 61.5 139.738281 Z M 61.5 120.527344 " clip-rule="nonzero"/></clipPath><clipPath id="2bbb2ef80f"><path d="M 71.578125 120.527344 L 73.957031 127.863281 L 81.65625 127.863281 L 75.425781 132.398438 L 77.804688 139.738281 L 71.578125 135.203125 L 65.347656 139.738281 L 67.726562 132.398438 L 61.5 127.863281 L 69.199219 127.863281 L 71.578125 120.527344 " clip-rule="nonzero"/></clipPath><clipPath id="356a6f0863"><path d="M 133.214844 120.53125 L 153.464844 120.53125 L 153.464844 140.023438 L 133.214844 140.023438 Z M 133.214844 120.53125 " clip-rule="nonzero"/></clipPath><clipPath id="0fc360f71f"><path d="M 143.339844 120.53125 L 145.730469 127.976562 L 153.464844 127.976562 L 147.207031 132.578125 L 149.597656 140.023438 L 143.339844 135.421875 L 137.082031 140.023438 L 139.472656 132.578125 L 133.214844 127.976562 L 140.949219 127.976562 L 143.339844 120.53125 " clip-rule="nonzero"/></clipPath><clipPath id="0acd58226b"><path d="M 85.40625 120.527344 L 105.558594 120.527344 L 105.558594 139.738281 L 85.40625 139.738281 Z M 85.40625 120.527344 " clip-rule="nonzero"/></clipPath><clipPath id="05262a02dd"><path d="M 95.480469 120.527344 L 97.863281 127.863281 L 105.558594 127.863281 L 99.332031 132.398438 L 101.710938 139.738281 L 95.480469 135.203125 L 89.253906 139.738281 L 91.632812 132.398438 L 85.40625 127.863281 L 93.101562 127.863281 L 95.480469 120.527344 " clip-rule="nonzero"/></clipPath><clipPath id="2be4a9c34c"><path d="M 109.308594 120.53125 L 129.558594 120.53125 L 129.558594 140.023438 L 109.308594 140.023438 Z M 109.308594 120.53125 " clip-rule="nonzero"/></clipPath><clipPath id="3c9f6409d9"><path d="M 119.433594 120.53125 L 121.824219 127.976562 L 129.558594 127.976562 L 123.300781 132.578125 L 125.691406 140.023438 L 119.433594 135.421875 L 113.175781 140.023438 L 115.566406 132.578125 L 109.308594 127.976562 L 117.042969 127.976562 L 119.433594 120.53125 " clip-rule="nonzero"/></clipPath></defs><g fill="#024959" fill-opacity="1"><g transform="translate(37.500002, 179.10948)"><g><path d="M 26.359375 0 L 26.328125 -16.59375 L 18.09375 -2.859375 L 16.015625 -2.859375 L 7.796875 -16.375 L 7.796875 0 L 3.359375 0 L 3.359375 -25.03125 L 7.1875 -25.03125 L 17.125 -8.4375 L 26.890625 -25.03125 L 30.71875 -25.03125 L 30.765625 0 Z M 26.359375 0 "/></g></g></g><g fill="#024959" fill-opacity="1"><g transform="translate(87.379817, 179.10948)"><g><path d="M 14.15625 -8.828125 L 14.15625 0 L 9.515625 0 L 9.515625 -8.765625 L -0.328125 -25.03125 L 4.65625 -25.03125 L 11.984375 -12.84375 L 19.390625 -25.03125 L 23.96875 -25.03125 Z M 14.15625 -8.828125 "/></g></g></g><g fill="#024959" fill-opacity="1"><g transform="translate(126.748005, 179.10948)"><g><path d="M 11.125 0.359375 C 9.1875 0.359375 7.316406 0.0859375 5.515625 -0.453125 C 3.722656 -1.003906 2.300781 -1.734375 1.25 -2.640625 L 2.859375 -6.265625 C 3.890625 -5.453125 5.148438 -4.785156 6.640625 -4.265625 C 8.128906 -3.753906 9.625 -3.5 11.125 -3.5 C 12.976562 -3.5 14.363281 -3.796875 15.28125 -4.390625 C 16.207031 -4.992188 16.671875 -5.785156 16.671875 -6.765625 C 16.671875 -7.472656 16.410156 -8.0625 15.890625 -8.53125 C 15.378906 -9 14.726562 -9.363281 13.9375 -9.625 C 13.15625 -9.882812 12.085938 -10.179688 10.734375 -10.515625 C 8.828125 -10.960938 7.28125 -11.410156 6.09375 -11.859375 C 4.914062 -12.316406 3.898438 -13.03125 3.046875 -14 C 2.203125 -14.96875 1.78125 -16.273438 1.78125 -17.921875 C 1.78125 -19.304688 2.15625 -20.5625 2.90625 -21.6875 C 3.664062 -22.820312 4.800781 -23.722656 6.3125 -24.390625 C 7.820312 -25.054688 9.675781 -25.390625 11.875 -25.390625 C 13.394531 -25.390625 14.894531 -25.195312 16.375 -24.8125 C 17.851562 -24.4375 19.128906 -23.890625 20.203125 -23.171875 L 18.734375 -19.5625 C 17.640625 -20.207031 16.492188 -20.695312 15.296875 -21.03125 C 14.109375 -21.363281 12.957031 -21.53125 11.84375 -21.53125 C 10 -21.53125 8.628906 -21.21875 7.734375 -20.59375 C 6.847656 -19.976562 6.40625 -19.160156 6.40625 -18.140625 C 6.40625 -17.421875 6.660156 -16.832031 7.171875 -16.375 C 7.679688 -15.925781 8.328125 -15.570312 9.109375 -15.3125 C 9.898438 -15.050781 10.976562 -14.75 12.34375 -14.40625 C 14.195312 -13.976562 15.71875 -13.53125 16.90625 -13.0625 C 18.101562 -12.601562 19.125 -11.894531 19.96875 -10.9375 C 20.820312 -9.988281 21.25 -8.703125 21.25 -7.078125 C 21.25 -5.691406 20.867188 -4.4375 20.109375 -3.3125 C 19.359375 -2.195312 18.21875 -1.304688 16.6875 -0.640625 C 15.164062 0.0234375 13.3125 0.359375 11.125 0.359375 Z M 13.40625 -31.96875 L 18.671875 -31.96875 L 12.4375 -27.078125 L 8.578125 -27.078125 Z M 13.40625 -31.96875 "/></g></g></g><g fill="#024959" fill-opacity="1"><g transform="translate(164.97207, 179.10948)"><g><path d="M 3.359375 -25.03125 L 8.015625 -25.03125 L 8.015625 -3.9375 L 21.109375 -3.9375 L 21.109375 0 L 3.359375 0 Z M 3.359375 -25.03125 "/></g></g></g><g fill="#024959" fill-opacity="1"><g transform="translate(202.123515, 179.10948)"><g><path d="M 3.359375 -25.03125 L 8.015625 -25.03125 L 8.015625 0 L 3.359375 0 Z M 3.359375 -25.03125 "/></g></g></g><g fill="#024959" fill-opacity="1"><g transform="translate(37.500002, 228.609477)"><g><path d="M 11.125 0.359375 C 9.1875 0.359375 7.316406 0.0859375 5.515625 -0.453125 C 3.722656 -1.003906 2.300781 -1.734375 1.25 -2.640625 L 2.859375 -6.265625 C 3.890625 -5.453125 5.148438 -4.785156 6.640625 -4.265625 C 8.128906 -3.753906 9.625 -3.5 11.125 -3.5 C 12.976562 -3.5 14.363281 -3.796875 15.28125 -4.390625 C 16.207031 -4.992188 16.671875 -5.785156 16.671875 -6.765625 C 16.671875 -7.472656 16.410156 -8.0625 15.890625 -8.53125 C 15.378906 -9 14.726562 -9.363281 13.9375 -9.625 C 13.15625 -9.882812 12.085938 -10.179688 10.734375 -10.515625 C 8.828125 -10.960938 7.28125 -11.410156 6.09375 -11.859375 C 4.914062 -12.316406 3.898438 -13.03125 3.046875 -14 C 2.203125 -14.96875 1.78125 -16.273438 1.78125 -17.921875 C 1.78125 -19.304688 2.15625 -20.5625 2.90625 -21.6875 C 3.664062 -22.820312 4.800781 -23.722656 6.3125 -24.390625 C 7.820312 -25.054688 9.675781 -25.390625 11.875 -25.390625 C 13.394531 -25.390625 14.894531 -25.195312 16.375 -24.8125 C 17.851562 -24.4375 19.128906 -23.890625 20.203125 -23.171875 L 18.734375 -19.5625 C 17.640625 -20.207031 16.492188 -20.695312 15.296875 -21.03125 C 14.109375 -21.363281 12.957031 -21.53125 11.84375 -21.53125 C 10 -21.53125 8.628906 -21.21875 7.734375 -20.59375 C 6.847656 -19.976562 6.40625 -19.160156 6.40625 -18.140625 C 6.40625 -17.421875 6.660156 -16.832031 7.171875 -16.375 C 7.679688 -15.925781 8.328125 -15.570312 9.109375 -15.3125 C 9.898438 -15.050781 10.976562 -14.75 12.34375 -14.40625 C 14.195312 -13.976562 15.71875 -13.53125 16.90625 -13.0625 C 18.101562 -12.601562 19.125 -11.894531 19.96875 -10.9375 C 20.820312 -9.988281 21.25 -8.703125 21.25 -7.078125 C 21.25 -5.691406 20.867188 -4.4375 20.109375 -3.3125 C 19.359375 -2.195312 18.21875 -1.304688 16.6875 -0.640625 C 15.164062 0.0234375 13.3125 0.359375 11.125 0.359375 Z M 11.125 0.359375 "/></g></g></g><g fill="#024959" fill-opacity="1"><g transform="translate(75.724068, 228.609477)"><g><path d="M 8.4375 -21.109375 L 0.140625 -21.109375 L 0.140625 -25.03125 L 21.390625 -25.03125 L 21.390625 -21.109375 L 13.09375 -21.109375 L 13.09375 0 L 8.4375 0 Z M 8.4375 -21.109375 "/></g></g></g><g fill="#024959" fill-opacity="1"><g transform="translate(112.982778, 228.609477)"><g><path d="M 14.125 0.359375 C 10.664062 0.359375 7.96875 -0.609375 6.03125 -2.546875 C 4.101562 -4.492188 3.140625 -7.28125 3.140625 -10.90625 L 3.140625 -25.03125 L 7.796875 -25.03125 L 7.796875 -11.09375 C 7.796875 -6.175781 9.914062 -3.71875 14.15625 -3.71875 C 18.382812 -3.71875 20.5 -6.175781 20.5 -11.09375 L 20.5 -25.03125 L 25.078125 -25.03125 L 25.078125 -10.90625 C 25.078125 -7.28125 24.113281 -4.492188 22.1875 -2.546875 C 20.269531 -0.609375 17.582031 0.359375 14.125 0.359375 Z M 14.125 0.359375 "/></g></g></g><g fill="#024959" fill-opacity="1"><g transform="translate(156.927458, 228.609477)"><g><path d="M 3.359375 -25.03125 L 14.3125 -25.03125 C 16.976562 -25.03125 19.347656 -24.507812 21.421875 -23.46875 C 23.492188 -22.4375 25.101562 -20.972656 26.25 -19.078125 C 27.394531 -17.179688 27.96875 -14.992188 27.96875 -12.515625 C 27.96875 -10.035156 27.394531 -7.847656 26.25 -5.953125 C 25.101562 -4.054688 23.492188 -2.585938 21.421875 -1.546875 C 19.347656 -0.515625 16.976562 0 14.3125 0 L 3.359375 0 Z M 14.09375 -3.9375 C 15.925781 -3.9375 17.539062 -4.285156 18.9375 -4.984375 C 20.332031 -5.691406 21.40625 -6.691406 22.15625 -7.984375 C 22.90625 -9.285156 23.28125 -10.796875 23.28125 -12.515625 C 23.28125 -14.234375 22.90625 -15.738281 22.15625 -17.03125 C 21.40625 -18.332031 20.332031 -19.335938 18.9375 -20.046875 C 17.539062 -20.753906 15.925781 -21.109375 14.09375 -21.109375 L 8.015625 -21.109375 L 8.015625 -3.9375 Z M 14.09375 -3.9375 "/></g></g></g><g fill="#024959" fill-opacity="1"><g transform="translate(202.19503, 228.609477)"><g><path d="M 22.140625 -3.90625 L 22.140625 0 L 3.359375 0 L 3.359375 -25.03125 L 21.640625 -25.03125 L 21.640625 -21.140625 L 8.015625 -21.140625 L 8.015625 -14.625 L 20.09375 -14.625 L 20.09375 -10.796875 L 8.015625 -10.796875 L 8.015625 -3.90625 Z M 22.140625 -3.90625 "/></g></g></g><g fill="#024959" fill-opacity="1"><g transform="translate(241.885015, 228.609477)"><g><path d="M 25.609375 -25.03125 L 25.609375 0 L 21.78125 0 L 7.96875 -16.953125 L 7.96875 0 L 3.359375 0 L 3.359375 -25.03125 L 7.1875 -25.03125 L 21 -8.078125 L 21 -25.03125 Z M 25.609375 -25.03125 "/></g></g></g><g fill="#024959" fill-opacity="1"><g transform="translate(286.580507, 228.609477)"><g><path d="M 8.4375 -21.109375 L 0.140625 -21.109375 L 0.140625 -25.03125 L 21.390625 -25.03125 L 21.390625 -21.109375 L 13.09375 -21.109375 L 13.09375 0 L 8.4375 0 Z M 8.4375 -21.109375 "/></g></g></g><g fill="#024959" fill-opacity="1"><g transform="translate(323.839218, 228.609477)"><g><path d="M 19.59375 -5.796875 L 7.078125 -5.796875 L 4.609375 0 L -0.171875 0 L 11.09375 -25.03125 L 15.671875 -25.03125 L 26.96875 0 L 22.109375 0 Z M 18.0625 -9.4375 L 13.34375 -20.390625 L 8.65625 -9.4375 Z M 18.0625 -9.4375 "/></g></g></g><g clip-path="url(#d3c20ecdaf)"><g clip-path="url(#a88174e7ba)"><path fill="#f4c01e" d="M 37.5 120.527344 L 57.65625 120.527344 L 57.65625 139.738281 L 37.5 139.738281 Z M 37.5 120.527344 " fill-opacity="1" fill-rule="nonzero"/></g></g><g clip-path="url(#db4a3d3ccf)"><g clip-path="url(#2bbb2ef80f)"><path fill="#f4c01e" d="M 61.5 120.527344 L 81.65625 120.527344 L 81.65625 139.738281 L 61.5 139.738281 Z M 61.5 120.527344 " fill-opacity="1" fill-rule="nonzero"/></g></g><g clip-path="url(#356a6f0863)"><g clip-path="url(#0fc360f71f)"><path stroke-linecap="butt" transform="matrix(0.753927, 0, 0, 0.76144, 133.214746, 120.530718)" fill="none" stroke-linejoin="miter" d="M 13.429819 0.000698039 L 16.600718 9.778637 L 26.859508 9.778637 L 18.559214 15.821875 L 21.730113 25.599814 L 13.429819 19.556576 L 5.129525 25.599814 L 8.300424 15.821875 L 0.000129453 9.778637 L 10.25892 9.778637 L 13.429819 0.000698039 " stroke="#f4c01e" stroke-width="2" stroke-opacity="1" stroke-miterlimit="4"/></g></g><g clip-path="url(#0acd58226b)"><g clip-path="url(#05262a02dd)"><path fill="#f4c01e" d="M 85.40625 120.527344 L 105.558594 120.527344 L 105.558594 139.738281 L 85.40625 139.738281 Z M 85.40625 120.527344 " fill-opacity="1" fill-rule="nonzero"/></g></g><g clip-path="url(#2be4a9c34c)"><g clip-path="url(#3c9f6409d9)"><path stroke-linecap="butt" transform="matrix(0.753927, 0, 0, 0.76144, 109.309831, 120.530718)" fill="none" stroke-linejoin="miter" d="M 13.428049 0.000698039 L 16.598947 9.778637 L 26.857738 9.778637 L 18.557444 15.821875 L 21.728343 25.599814 L 13.428049 19.556576 L 5.127754 25.599814 L 8.298653 15.821875 L -0.00164097 9.778637 L 10.25715 9.778637 L 13.428049 0.000698039 " stroke="#f4c01e" stroke-width="2" stroke-opacity="1" stroke-miterlimit="4"/></g></g></svg>